HIERARCHY
ROOT Hips
{
	OFFSET -19.934631 -33.524395 87.965111
	CHANNELS 6 Xposition Yposition Zposition Zrotation Yrotation Xrotation
	JOINT Spine
	{
		OFFSET 0.000000 2.080107 8.814247
		CHANNELS 6 Xposition Yposition Zposition Zrotation Yrotation Xrotation
		JOINT Spine1
		{
			OFFSET 0.000000 0.000000 8.844139
			CHANNELS 6 Xposition Yposition Zposition Zrotation Yrotation Xrotation
			JOINT Spine2
			{
				OFFSET 0.000000 0.000002 11.682266
				CHANNELS 6 Xposition Yposition Zposition Zrotation Yrotation Xrotation
				JOINT Spine3
				{
					OFFSET 0.000000 0.000000 11.746696
					CHANNELS 6 Xposition Yposition Zposition Zrotation Yrotation Xrotation
					JOINT Neck
					{
						OFFSET 0.000000 0.000002 17.658264
						CHANNELS 6 Xposition Yposition Zposition Zrotation Yrotation Xrotation
						JOINT Neck1
						{
							OFFSET 0.000000 0.000000 5.101517
							CHANNELS 6 Xposition Yposition Zposition Zrotation Yrotation Xrotation
							JOINT Head
							{
								OFFSET 0.000000 0.000000 5.101517
								CHANNELS 6 Xposition Yposition Zposition Zrotation Yrotation Xrotation
								JOINT HeadEnd
								{
									OFFSET 0.000000 0.000002 11.655090
									CHANNELS 6 Xposition Yposition Zposition Zrotation Yrotation Xrotation
									End Site
									{
										OFFSET 0.000000 0.000000 0.100006
									}
								}
							}
						}
					}
					JOINT RightShoulder
					{
						OFFSET -2.625389 0.000002 11.175217
						CHANNELS 6 Xposition Yposition Zposition Zrotation Yrotation Xrotation
						JOINT RightArm
						{
							OFFSET 0.000000 0.000000 10.434708
							CHANNELS 6 Xposition Yposition Zposition Zrotation Yrotation Xrotation
							JOINT RightForeArm
							{
								OFFSET 0.000000 0.000002 29.628418
								CHANNELS 6 Xposition Yposition Zposition Zrotation Yrotation Xrotation
								JOINT RightHand
								{
									OFFSET 0.000000 0.000002 22.857605
									CHANNELS 6 Xposition Yposition Zposition Zrotation Yrotation Xrotation
									JOINT RightHandThumb1
									{
										OFFSET -2.867323 -2.944292 3.959564
										CHANNELS 6 Xposition Yposition Zposition Zrotation Yrotation Xrotation
										JOINT RightHandThumb2
										{
											OFFSET 0.000000 0.000000 3.350403
											CHANNELS 6 Xposition Yposition Zposition Zrotation Yrotation Xrotation
											JOINT RightHandThumb3
											{
												OFFSET 0.000000 0.000000 3.756516
												CHANNELS 6 Xposition Yposition Zposition Zrotation Yrotation Xrotation
												JOINT RightHandThumb4
												{
													OFFSET 0.000000 0.000000 3.147339
													CHANNELS 6 Xposition Yposition Zposition Zrotation Yrotation Xrotation
													End Site
													{
														OFFSET 0.000000 0.000000 0.100006
													}
												}
											}
										}
									}
									JOINT RightHandIndex1
									{
										OFFSET -0.086752 -2.345282 10.030899
										CHANNELS 6 Xposition Yposition Zposition Zrotation Yrotation Xrotation
										JOINT RightHandIndex2
										{
											OFFSET 0.000000 0.000000 4.061096
											CHANNELS 6 Xposition Yposition Zposition Zrotation Yrotation Xrotation
											JOINT RightHandIndex3
											{
												OFFSET 0.000000 0.000000 3.248871
												CHANNELS 6 Xposition Yposition Zposition Zrotation Yrotation Xrotation
												JOINT RightHandIndex4
												{
													OFFSET 0.000000 0.000000 2.639709
													CHANNELS 6 Xposition Yposition Zposition Zrotation Yrotation Xrotation
													End Site
													{
														OFFSET 0.000000 0.000000 0.100006
													}
												}
											}
										}
									}
									JOINT RightHandMiddle1
									{
										OFFSET 0.104101 -0.006767 9.502945
										CHANNELS 6 Xposition Yposition Zposition Zrotation Yrotation Xrotation
										JOINT RightHandMiddle2
										{
											OFFSET 0.000000 0.000002 4.568726
											CHANNELS 6 Xposition Yposition Zposition Zrotation Yrotation Xrotation
											JOINT RightHandMiddle3
											{
												OFFSET 0.000000 0.000000 3.654984
												CHANNELS 6 Xposition Yposition Zposition Zrotation Yrotation Xrotation
												JOINT RightHandMiddle4
												{
													OFFSET 0.000000 0.000000 2.741241
													CHANNELS 6 Xposition Yposition Zposition Zrotation Yrotation Xrotation
													End Site
													{
														OFFSET 0.000000 0.000000 0.100006
													}
												}
											}
										}
									}
									JOINT RightHandRing1
									{
										OFFSET 0.086752 2.267443 8.921707
										CHANNELS 6 Xposition Yposition Zposition Zrotation Yrotation Xrotation
										JOINT RightHandRing2
										{
											OFFSET 0.000000 0.000002 4.061096
											CHANNELS 6 Xposition Yposition Zposition Zrotation Yrotation Xrotation
											JOINT RightHandRing3
											{
												OFFSET 0.000000 0.000000 3.654984
												CHANNELS 6 Xposition Yposition Zposition Zrotation Yrotation Xrotation
												JOINT RightHandRing4
												{
													OFFSET 0.000000 0.000000 2.741241
													CHANNELS 6 Xposition Yposition Zposition Zrotation Yrotation Xrotation
													End Site
													{
														OFFSET 0.000000 0.000000 0.100006
													}
												}
											}
										}
									}
									JOINT RightHandPinky1
									{
										OFFSET -0.173504 4.467199 7.976990
										CHANNELS 6 Xposition Yposition Zposition Zrotation Yrotation Xrotation
										JOINT RightHandPinky2
										{
											OFFSET 0.000000 0.000000 3.350403
											CHANNELS 6 Xposition Yposition Zposition Zrotation Yrotation Xrotation
											JOINT RightHandPinky3
											{
												OFFSET 0.000000 0.000002 2.842758
												CHANNELS 6 Xposition Yposition Zposition Zrotation Yrotation Xrotation
												JOINT RightHandPinky4
												{
													OFFSET 0.000000 0.000000 2.639709
													CHANNELS 6 Xposition Yposition Zposition Zrotation Yrotation Xrotation
													End Site
													{
														OFFSET 0.000000 0.000000 0.100006
													}
												}
											}
										}
									}
									JOINT RightForeArmEnd
									{
										OFFSET 0.000000 0.000000 0.000000
										CHANNELS 6 Xposition Yposition Zposition Zrotation Yrotation Xrotation
										End Site
										{
											OFFSET 0.000000 0.000000 0.100006
										}
									}
								}
								JOINT RightArmEnd
								{
									OFFSET 0.000000 0.000000 0.000000
									CHANNELS 6 Xposition Yposition Zposition Zrotation Yrotation Xrotation
									End Site
									{
										OFFSET 0.000000 0.000000 0.100006
									}
								}
							}
						}
					}
					JOINT LeftShoulder
					{
						OFFSET 2.625389 0.000002 11.175217
						CHANNELS 6 Xposition Yposition Zposition Zrotation Yrotation Xrotation
						JOINT LeftArm
						{
							OFFSET 0.000000 0.000000 10.813629
							CHANNELS 6 Xposition Yposition Zposition Zrotation Yrotation Xrotation
							JOINT LeftForeArm
							{
								OFFSET 0.000000 0.000002 28.724777
								CHANNELS 6 Xposition Yposition Zposition Zrotation Yrotation Xrotation
								JOINT LeftHand
								{
									OFFSET 0.644384 0.328873 25.716171
									CHANNELS 6 Xposition Yposition Zposition Zrotation Yrotation Xrotation
									JOINT LeftHandThumb1
									{
										OFFSET 2.867323 -2.944290 3.959564
										CHANNELS 6 Xposition Yposition Zposition Zrotation Yrotation Xrotation
										JOINT LeftHandThumb2
										{
											OFFSET 0.000000 0.000000 3.350403
											CHANNELS 6 Xposition Yposition Zposition Zrotation Yrotation Xrotation
											JOINT LeftHandThumb3
											{
												OFFSET 0.000000 0.000000 3.756516
												CHANNELS 6 Xposition Yposition Zposition Zrotation Yrotation Xrotation
												JOINT LeftHandThumb4
												{
													OFFSET 0.000000 0.000000 3.100006
													CHANNELS 6 Xposition Yposition Zposition Zrotation Yrotation Xrotation
													End Site
													{
														OFFSET 0.000000 0.000000 0.100006
													}
												}
											}
										}
									}
									JOINT LeftHandIndex1
									{
										OFFSET 0.086752 -2.345280 10.030899
										CHANNELS 6 Xposition Yposition Zposition Zrotation Yrotation Xrotation
										JOINT LeftHandIndex2
										{
											OFFSET 0.000000 0.000000 4.061096
											CHANNELS 6 Xposition Yposition Zposition Zrotation Yrotation Xrotation
											JOINT LeftHandIndex3
											{
												OFFSET 0.000000 0.000000 3.248871
												CHANNELS 6 Xposition Yposition Zposition Zrotation Yrotation Xrotation
												JOINT LeftHandIndex4
												{
													OFFSET 0.000000 0.000000 2.639709
													CHANNELS 6 Xposition Yposition Zposition Zrotation Yrotation Xrotation
													End Site
													{
														OFFSET 0.000000 0.000000 0.100006
													}
												}
											}
										}
									}
									JOINT LeftHandMiddle1
									{
										OFFSET -0.104101 -0.006765 9.502945
										CHANNELS 6 Xposition Yposition Zposition Zrotation Yrotation Xrotation
										JOINT LeftHandMiddle2
										{
											OFFSET 0.000000 0.000000 4.568726
											CHANNELS 6 Xposition Yposition Zposition Zrotation Yrotation Xrotation
											JOINT LeftHandMiddle3
											{
												OFFSET 0.000000 0.000000 3.654984
												CHANNELS 6 Xposition Yposition Zposition Zrotation Yrotation Xrotation
												JOINT LeftHandMiddle4
												{
													OFFSET 0.000000 0.000000 2.741241
													CHANNELS 6 Xposition Yposition Zposition Zrotation Yrotation Xrotation
													End Site
													{
														OFFSET 0.000000 0.000000 0.100006
													}
												}
											}
										}
									}
									JOINT LeftHandRing1
									{
										OFFSET -0.086752 2.267443 8.921707
										CHANNELS 6 Xposition Yposition Zposition Zrotation Yrotation Xrotation
										JOINT LeftHandRing2
										{
											OFFSET 0.000000 0.000002 4.061096
											CHANNELS 6 Xposition Yposition Zposition Zrotation Yrotation Xrotation
											JOINT LeftHandRing3
											{
												OFFSET 0.000000 0.000000 3.654984
												CHANNELS 6 Xposition Yposition Zposition Zrotation Yrotation Xrotation
												JOINT LeftHandRing4
												{
													OFFSET 0.000000 0.000000 2.741241
													CHANNELS 6 Xposition Yposition Zposition Zrotation Yrotation Xrotation
													End Site
													{
														OFFSET 0.000000 0.000000 0.100006
													}
												}
											}
										}
									}
									JOINT LeftHandPinky1
									{
										OFFSET 0.173504 4.467199 7.976990
										CHANNELS 6 Xposition Yposition Zposition Zrotation Yrotation Xrotation
										JOINT LeftHandPinky2
										{
											OFFSET 0.000000 0.000002 3.350403
											CHANNELS 6 Xposition Yposition Zposition Zrotation Yrotation Xrotation
											JOINT LeftHandPinky3
											{
												OFFSET 0.000000 0.000000 2.842758
												CHANNELS 6 Xposition Yposition Zposition Zrotation Yrotation Xrotation
												JOINT LeftHandPinky4
												{
													OFFSET 0.000000 0.000000 2.639709
													CHANNELS 6 Xposition Yposition Zposition Zrotation Yrotation Xrotation
													End Site
													{
														OFFSET 0.000000 0.000000 0.100006
													}
												}
											}
										}
									}
									JOINT LeftForeArmEnd
									{
										OFFSET 0.000000 0.000000 0.000000
										CHANNELS 6 Xposition Yposition Zposition Zrotation Yrotation Xrotation
										End Site
										{
											OFFSET 0.000000 0.000000 0.100006
										}
									}
								}
								JOINT LeftArmEnd
								{
									OFFSET 0.000000 0.000000 0.000000
									CHANNELS 6 Xposition Yposition Zposition Zrotation Yrotation Xrotation
									End Site
									{
										OFFSET 0.000000 0.000000 0.100006
									}
								}
							}
						}
					}
				}
			}
		}
	}
	JOINT RightUpLeg
	{
		OFFSET -11.289944 0.000000 0.000000
		CHANNELS 6 Xposition Yposition Zposition Zrotation Yrotation Xrotation
		JOINT RightLeg
		{
			OFFSET 0.000000 -0.000004 -38.200321
			CHANNELS 6 Xposition Yposition Zposition Zrotation Yrotation Xrotation
			JOINT RightFoot
			{
				OFFSET 0.000000 -0.000004 -39.900856
				CHANNELS 6 Xposition Yposition Zposition Zrotation Yrotation Xrotation
				JOINT RightToeBase
				{
					OFFSET 0.000000 -15.261639 0.000001
					CHANNELS 6 Xposition Yposition Zposition Zrotation Yrotation Xrotation
					JOINT RightToeBaseEnd
					{
						OFFSET 0.000000 -7.370708 0.000000
						CHANNELS 6 Xposition Yposition Zposition Zrotation Yrotation Xrotation
						End Site
						{
							OFFSET 0.000000 0.000000 0.100000
						}
					}
				}
				JOINT RightLegEnd
				{
					OFFSET 0.000000 0.000000 0.000000
					CHANNELS 6 Xposition Yposition Zposition Zrotation Yrotation Xrotation
					End Site
					{
						OFFSET 0.000000 0.000000 0.100000
					}
				}
			}
			JOINT RightUpLegEnd
			{
				OFFSET 0.000000 0.000000 0.000000
				CHANNELS 6 Xposition Yposition Zposition Zrotation Yrotation Xrotation
				End Site
				{
					OFFSET 0.000000 0.000000 0.099998
				}
			}
		}
	}
	JOINT LeftUpLeg
	{
		OFFSET 11.315661 0.000000 0.000000
		CHANNELS 6 Xposition Yposition Zposition Zrotation Yrotation Xrotation
		JOINT LeftLeg
		{
			OFFSET 0.000000 -0.000004 -38.200321
			CHANNELS 6 Xposition Yposition Zposition Zrotation Yrotation Xrotation
			JOINT LeftFoot
			{
				OFFSET 0.000000 -0.000004 -39.900856
				CHANNELS 6 Xposition Yposition Zposition Zrotation Yrotation Xrotation
				JOINT LeftToeBase
				{
					OFFSET 0.000000 -15.261639 0.000001
					CHANNELS 6 Xposition Yposition Zposition Zrotation Yrotation Xrotation
					JOINT LeftToeBaseEnd
					{
						OFFSET 0.000000 -7.539997 0.000000
						CHANNELS 6 Xposition Yposition Zposition Zrotation Yrotation Xrotation
						End Site
						{
							OFFSET 0.000000 0.000000 0.100000
						}
					}
				}
				JOINT LeftLegEnd
				{
					OFFSET 0.000000 0.000000 0.000000
					CHANNELS 6 Xposition Yposition Zposition Zrotation Yrotation Xrotation
					End Site
					{
						OFFSET 0.000000 0.000000 0.100000
					}
				}
			}
			JOINT LeftUpLegEnd
			{
				OFFSET 0.000000 0.000000 0.000000
				CHANNELS 6 Xposition Yposition Zposition Zrotation Yrotation Xrotation
				End Site
				{
					OFFSET 0.000000 0.000000 0.099998
				}
			}
		}
	}
}
MOTION
Frames: 2
Frame Time: 0.016667
-20.381958 -17.821766 84.814842 13.759363 7.887618 -15.430999 -0.000004 2.080113 8.814254 -1.426226 -4.867923 5.925422 -0.000002 0.000000 8.844140 -0.981816 -2.810907 4.876623 0.000001 0.000002 11.682254 -2.974645 -3.947912 12.801010 -0.000003 -0.000001 11.746682 -0.580021 -0.046746 1.982907 0.000000 -0.000000 17.658293 9.439676 -6.058866 13.253797 0.000000 0.000001 5.101514 9.290733 2.498408 -4.671527 0.000008 -0.000003 5.101506 3.208493 3.150671 -25.240232 0.000002 0.000002 11.655090 -0.000000 0.000000 -0.000000 -2.625397 0.000003 11.175216 6.418760 -95.404970 -0.593161 -0.000022 -0.000002 10.434696 -59.564912 -35.624303 50.099048 -0.000007 -0.000010 29.628408 15.144829 -1.122757 39.720040 0.000008 0.000007 22.857616 12.948017 -5.258531 -14.043961 -2.867313 -2.944283 3.959553 31.623885 -17.268316 51.506597 0.000004 -0.000009 3.350410 -12.679403 8.429127 -22.889683 -0.000002 -0.000005 3.756504 -8.440190 6.403177 -15.670609 -0.000004 0.000010 3.147355 0.000000 0.000000 -0.000002 -0.086752 -2.345279 10.030882 -11.785092 -16.017560 2.353203 -0.000004 0.000001 4.061104 0.351339 -11.395400 1.629117 -0.000004 -0.000005 3.248862 -0.151410 -11.395591 1.621995 0.000004 -0.000003 2.639725 -0.000002 0.000001 0.000000 0.104098 -0.006762 9.502936 -6.629776 -16.478839 -0.516998 -0.000004 -0.000008 4.568734 0.444175 -11.657331 0.615997 0.000002 -0.000003 3.655010 -0.026278 -11.657162 0.618808 -0.000003 -0.000002 2.741243 -0.000001 0.000002 -0.000001 0.086754 2.267449 8.921713 1.529934 -17.222749 -3.141627 -0.000003 -0.000001 4.061094 -0.961184 -12.360884 -0.759905 -0.000003 -0.000000 3.654997 0.075289 -12.361109 -0.771061 -0.000003 0.000000 2.741272 -0.000003 0.000003 0.000003 -0.173500 4.467201 7.976982 10.321056 -16.188315 -7.750515 -0.000001 -0.000001 3.350438 -1.761496 -12.216756 -2.413810 -0.000006 0.000006 2.842779 0.262527 -12.215067 -2.422661 -0.000005 0.000000 2.639695 -0.000001 0.000001 -0.000001 -0.000002 0.000003 -0.000017 -0.000001 -0.000001 0.000001 0.000001 0.000005 0.000016 -0.000001 0.000001 -0.000001 2.625399 0.000002 11.175230 -6.632774 95.249017 -0.972004 0.000010 -0.000003 10.813636 61.665168 35.263894 52.520398 0.000003 -0.000013 28.724815 -9.958488 1.269672 48.300024 0.644389 0.328874 25.716196 -19.800939 -1.318882 -14.222616 2.867315 -2.944298 3.959585 -31.800329 16.060404 53.377922 -0.000003 -0.000005 3.350411 10.021674 -7.237021 -18.397792 0.000000 0.000013 3.756514 6.707786 -5.373696 -12.625501 0.000001 0.000001 3.100019 0.000001 0.000000 0.000004 0.086752 -2.345283 10.030922 -6.513779 11.555054 -4.169761 -0.000000 -0.000004 4.061082 0.410150 8.477772 -1.200480 0.000001 -0.000001 3.248885 -0.089976 8.477939 -1.200525 -0.000000 0.000000 2.639709 -0.000001 0.000000 0.000000 -0.104106 -0.006766 9.502958 -1.452872 11.599744 -3.949835 -0.000001 -0.000001 4.568762 0.468166 8.391098 -0.442840 0.000001 0.000002 3.655022 -0.032929 8.391085 -0.442993 0.000007 0.000004 2.741241 0.000002 -0.000001 -0.000000 -0.086753 2.267446 8.921721 6.647206 11.594303 -0.781460 0.000000 0.000002 4.061116 -0.963895 8.158461 0.502433 0.000002 0.000001 3.654968 0.037295 8.158273 0.502610 -0.000001 -0.000005 2.741241 0.000000 -0.000001 -0.000000 0.173502 4.467196 7.977013 15.032801 10.173067 1.416760 0.000004 0.000004 3.350391 -1.910989 7.136874 1.394921 0.000001 0.000001 2.842761 0.086973 7.137135 1.394657 0.000005 -0.000002 2.639709 0.000000 0.000002 0.000001 -0.000001 0.000000 0.000030 -0.000002 -0.000000 0.000001 -0.000001 -0.000005 0.000015 0.000001 0.000001 0.000001 -11.289953 -0.000010 0.000013 -12.679030 -13.740930 20.563157 -0.000009 -0.000008 -38.200302 -0.123895 0.019942 9.481053 -0.000007 -0.000003 -39.900856 -21.530732 10.891460 11.768308 -0.000003 -15.261642 0.000004 -1.200632 -0.399530 -28.946687 -0.000001 -7.370712 0.000000 -0.000001 0.000001 -0.000000 -0.000003 -0.000004 -0.000001 0.000000 -0.000000 -0.000000 -0.000001 -0.000001 0.000011 0.000001 -0.000000 0.000001 11.315651 -0.000004 0.000010 13.226003 -23.117795 -6.107525 0.000000 -0.000011 -38.200321 1.066178 -0.748337 35.140900 -0.000002 -0.000005 -39.900856 6.219984 7.242687 12.933774 -0.000000 -15.261642 0.000004 1.523910 -1.067215 -28.287314 -0.000001 -7.539998 0.000000 0.000003 -0.000000 -0.000000 0.000000 -0.000003 0.000001 -0.000002 -0.000002 0.000003 -0.000001 -0.000005 0.000007 -0.000002 -0.000001 0.000001 
-20.391312 -17.799717 84.814384 13.803929 7.892203 -15.437479 -0.000005 2.080106 8.814267 -1.426879 -4.874661 5.916787 -0.000001 0.000002 8.844158 -0.984748 -2.843919 4.874291 0.000000 0.000001 11.682260 -2.952315 -3.915789 12.811024 0.000000 0.000002 11.746695 -0.573844 -0.045799 1.994750 -0.000002 -0.000006 17.658272 9.496279 -6.089993 13.197438 0.000004 -0.000004 5.101520 9.366918 2.495317 -4.684214 0.000000 -0.000000 5.101521 3.200131 3.164102 -25.213993 0.000000 -0.000000 11.655090 -0.000001 -0.000000 0.000000 -2.625398 0.000003 11.175223 6.417862 -95.352023 -0.598132 -0.000017 0.000003 10.434713 -59.576455 -35.667422 50.165578 -0.000006 0.000015 29.628424 15.149947 -1.124520 39.730606 -0.000002 0.000004 22.857635 12.913383 -5.265783 -14.017777 -2.867311 -2.944283 3.959572 31.644700 -17.093783 51.773039 0.000002 -0.000012 3.350404 -12.293614 8.271538 -22.243894 -0.000002 0.000008 3.756512 -8.189122 6.261724 -15.233308 -0.000005 0.000002 3.147355 -0.000000 0.000000 -0.000001 -0.086748 -2.345283 10.030888 -11.782004 -15.992106 2.351001 -0.000001 0.000003 4.061097 0.351370 -11.377570 1.629787 -0.000002 -0.000003 3.248903 -0.151278 -11.377604 1.621446 -0.000001 0.000001 2.639707 -0.000002 -0.000003 0.000003 0.104104 -0.006768 9.502956 -6.628912 -16.456730 -0.511769 -0.000007 0.000001 4.568716 0.444218 -11.641731 0.616065 -0.000001 0.000002 3.655005 -0.026096 -11.641777 0.618586 0.000004 0.000001 2.741257 0.000001 -0.000000 -0.000000 0.086749 2.267442 8.921718 1.531497 -17.209210 -3.135863 -0.000004 0.000006 4.061094 -0.961552 -12.350926 -0.760273 -0.000000 -0.000000 3.654999 0.075211 -12.351077 -0.771344 -0.000003 -0.000000 2.741242 -0.000002 0.000004 0.000003 -0.173504 4.467196 7.976975 10.321343 -16.183785 -7.744016 0.000004 0.000002 3.350414 -1.761390 -12.212116 -2.413321 -0.000002 0.000007 2.842780 0.262521 -12.212218 -2.424712 -0.000001 0.000000 2.639723 -0.000001 -0.000002 0.000001 0.000004 0.000000 -0.000015 0.000002 -0.000000 -0.000000 -0.000001 0.000001 0.000015 0.000001 0.000000 0.000001 2.625392 -0.000001 11.175217 -6.687181 95.247616 -0.981752 0.000004 0.000000 10.813634 61.631741 35.397483 52.455204 -0.000005 -0.000025 28.724798 -10.431145 1.232475 48.616375 0.644391 0.328873 25.716185 -20.342216 -1.218590 -14.087222 2.867326 -2.944275 3.959566 -31.800333 16.060389 53.378031 0.000004 0.000004 3.350414 10.021668 -7.236998 -18.397869 0.000001 0.000009 3.756520 6.707786 -5.373683 -12.625506 0.000001 0.000006 3.099988 0.000001 -0.000001 0.000004 0.086751 -2.345277 10.030885 -6.466104 11.767702 -4.631755 -0.000000 0.000000 4.061094 0.406833 8.673978 -1.228536 -0.000000 -0.000000 3.248869 -0.093165 8.673974 -1.228513 0.000002 -0.000000 2.639694 0.000000 -0.000002 -0.000001 -0.104103 -0.006761 9.502930 -1.399554 11.864859 -4.484200 0.000008 -0.000000 4.568740 0.468146 8.602160 -0.453901 0.000007 0.000003 3.655017 -0.034166 8.602164 -0.454246 0.000002 -0.000000 2.741242 0.000001 -0.000001 -0.000002 -0.086751 2.267447 8.921718 6.718075 12.008010 -1.465362 0.000002 0.000003 4.061086 -0.961893 8.413082 0.518285 -0.000001 -0.000003 3.654978 0.039488 8.412845 0.518474 -0.000003 0.000002 2.741226 0.000003 0.000003 0.000001 0.173504 4.467203 7.976998 15.125567 10.761072 0.634803 0.000003 0.000004 3.350407 -1.906092 7.413975 1.449360 0.000001 0.000001 2.842766 0.094250 7.413808 1.449414 -0.000002 -0.000002 2.639709 -0.000001 -0.000001 -0.000000 0.000001 0.000001 0.000015 0.000000 -0.000000 0.000001 0.000003 0.000000 0.000001 0.000001 0.000001 -0.000002 -11.289948 -0.000009 0.000021 -12.705069 -13.744961 20.560918 0.000001 -0.000010 -38.200302 -0.122859 0.019770 9.479561 -0.000002 -0.000004 -39.900856 -21.551776 10.897130 11.775116 -0.000002 -15.261644 0.000001 -1.203043 -0.400320 -28.947677 0.000002 -7.370708 0.000000 0.000000 0.000000 -0.000000 -0.000002 -0.000005 0.000000 0.000002 0.000000 0.000002 0.000002 -0.000006 0.000008 0.000001 -0.000001 -0.000001 11.315653 -0.000007 0.000023 13.192510 -23.111552 -6.119820 0.000003 -0.000010 -38.200314 1.065664 -0.747966 35.139114 -0.000001 -0.000002 -39.900856 6.211968 7.229194 12.947267 0.000002 -15.261645 0.000004 1.523544 -1.067326 -28.284531 -0.000000 -7.539998 -0.000000 0.000002 -0.000001 0.000000 0.000002 -0.000004 -0.000000 0.000000 0.000001 0.000003 -0.000001 -0.000001 0.000011 0.000002 -0.000000 0.000000 
